<svg width="49" height="50" viewBox="0 0 49 50" fill="none" xmlns="http://www.w3.org/2000/svg">
<g clip-path="url(#clip0)" filter="url(#filter0_d)">
<path d="M24.6134 0.588116C25.4098 0.655685 26.1638 0.930941 26.7694 1.37753L43.048 13.3424C43.8686 13.9057 44.3864 14.7315 44.4834 15.6272C44.5802 16.5231 44.2502 17.4137 43.569 18.0992C42.8846 18.7821 41.9096 19.2001 40.8618 19.2546C39.8142 19.3092 38.7846 18.9975 38.0094 18.3901L24.25 8.27369L10.4906 18.3901C9.7154 18.9975 8.6859 19.3092 7.63816 19.2546C6.59042 19.2001 5.61541 18.7821 4.93108 18.0992C4.24977 17.4137 3.91971 16.5231 4.01661 15.6272C4.1135 14.7315 4.6313 13.9057 5.45193 13.3424L21.7307 1.37753C22.527 0.790653 23.5687 0.507683 24.6134 0.588116Z" fill="#0B7D40"/>
<path d="M24.6134 22.883C25.4098 22.9506 26.1638 23.2258 26.7694 23.6724L43.048 35.6372C43.8686 36.2006 44.3864 37.0263 44.4834 37.9221C44.5802 38.818 44.2502 39.7085 43.569 40.3941C42.8846 41.0769 41.9096 41.495 40.8618 41.5495C39.8142 41.6041 38.7846 41.2925 38.0094 40.6849L24.25 30.5686L10.4906 40.6849C9.7154 41.2925 8.6859 41.6041 7.63816 41.5495C6.59042 41.495 5.61541 41.077 4.93108 40.3941C4.24977 39.7086 3.91971 38.818 4.01661 37.9221C4.1135 37.0263 4.6313 36.2007 5.45193 35.6372L21.7307 23.6724C22.527 23.0855 23.5687 22.8026 24.6134 22.883Z" fill="#0B7D40"/>
</g>
<defs>
<filter id="filter0_d" x="0" y="0.395996" width="50" height="49.1598" filterUnits="userSpaceOnUse" color-interpolation-filters="sRGB">
<feFlood flood-opacity="0" result="BackgroundImageFix"/>
<feColorMatrix in="SourceAlpha" type="matrix" values="0 0 0 0 0 0 0 0 0 0 0 0 0 0 0 0 0 0 127 0"/>
<feOffset dy="4"/>
<feGaussianBlur stdDeviation="2"/>
<feColorMatrix type="matrix" values="0 0 0 0 0 0 0 0 0 0 0 0 0 0 0 0 0 0 1 0"/>
<feBlend mode="normal" in2="BackgroundImageFix" result="effect1_dropShadow"/>
<feBlend mode="normal" in="SourceGraphic" in2="effect1_dropShadow" result="shape"/>
</filter>
<clipPath id="clip0">
<rect width="42" height="41.1598" fill="white" transform="matrix(1 0 0 -1 4 41.5557)"/>
</clipPath>
</defs>
</svg>
