<svg width="45" height="31" viewBox="0 0 45 31" fill="none" xmlns="http://www.w3.org/2000/svg">
<g filter="url(#filter0_d)">
<path d="M38.3571 20.3864V7.84091C37.9235 8.23295 37.4487 8.59233 36.9325 8.91903C33.9799 10.7159 31.0067 12.5455 28.1367 14.4403C26.5882 15.4695 24.668 16.7273 22.5206 16.7273H22.4794C20.332 16.7273 18.4118 15.4695 16.8633 14.4403C13.9933 12.5455 11.0201 10.7159 8.06752 8.91903C7.55134 8.59233 7.07645 8.23295 6.64286 7.84091V20.3864C6.64286 20.6641 6.95257 20.9091 7.30357 20.9091H37.6964C38.0474 20.9091 38.3571 20.6641 38.3571 20.3864ZM38.3571 3.21804C38.3571 2.80966 38.481 2.09091 37.6964 2.09091H7.30357C6.95257 2.09091 6.64286 2.33594 6.64286 2.61364C6.64286 4.47585 7.81975 6.09304 9.67801 7.25284C12.4448 8.96804 15.2115 10.6996 17.9576 12.4311C19.0519 13.1335 21.034 14.6364 22.4794 14.6364H22.5206C23.966 14.6364 25.9481 13.1335 27.0424 12.4311C29.7885 10.6996 32.5552 8.96804 35.322 7.25284C36.6641 6.41974 38.3571 4.60653 38.3571 3.21804ZM41 2.61364V20.3864C41 21.8239 39.5134 23 37.6964 23H7.30357C5.48661 23 4 21.8239 4 20.3864V2.61364C4 1.17614 5.48661 0 7.30357 0H37.6964C39.5134 0 41 1.17614 41 2.61364Z" fill="#0B7D40"/>
</g>
<defs>
<filter id="filter0_d" x="0" y="0" width="45" height="31" filterUnits="userSpaceOnUse" color-interpolation-filters="sRGB">
<feFlood flood-opacity="0" result="BackgroundImageFix"/>
<feColorMatrix in="SourceAlpha" type="matrix" values="0 0 0 0 0 0 0 0 0 0 0 0 0 0 0 0 0 0 127 0"/>
<feOffset dy="4"/>
<feGaussianBlur stdDeviation="2"/>
<feColorMatrix type="matrix" values="0 0 0 0 0 0 0 0 0 0 0 0 0 0 0 0 0 0 1 0"/>
<feBlend mode="normal" in2="BackgroundImageFix" result="effect1_dropShadow"/>
<feBlend mode="normal" in="SourceGraphic" in2="effect1_dropShadow" result="shape"/>
</filter>
</defs>
</svg>
