<svg width="36" height="35" viewBox="0 0 36 35" fill="none" xmlns="http://www.w3.org/2000/svg">
<g filter="url(#filter0_d)">
<path fill-rule="evenodd" clip-rule="evenodd" d="M8.64297 0C9.33991 0.00583262 10.0246 0.178353 10.6354 0.502105C11.2462 0.825857 11.7641 1.29072 12.1429 1.85506L15.135 4.73748C15.6803 5.16371 16.0748 5.74279 16.264 6.39469C16.3517 6.674 16.3711 6.96914 16.3205 7.25688C16.0927 8.00678 15.625 8.66809 14.9844 9.14642C14.6645 9.47858 14.3259 9.80894 13.9872 10.1393C13.6092 10.4138 13.2843 10.7506 13.0275 11.134C13.16 11.3099 13.2733 11.4985 13.3661 11.6967C13.6295 12.0597 13.9307 12.4028 14.1942 12.7567C14.4953 13.147 14.9279 13.4664 15.229 13.8458C16.0627 14.8695 17.0305 15.7847 18.1081 16.5685C18.2586 16.6737 18.3715 16.8571 18.522 16.966C18.936 17.2637 19.3312 17.5468 19.764 17.8282C19.9767 18.019 20.2355 18.1556 20.5167 18.2257C20.8808 17.8051 21.2839 17.4175 21.7211 17.0676C22.3998 16.1529 23.3419 15.4505 24.4306 15.0474C24.8803 14.9781 25.3414 15.0473 25.748 15.2452C26.7943 15.8778 27.7229 16.6754 28.4952 17.6049C29.2103 18.3019 29.9254 18.9971 30.6592 19.6941C31.0512 19.9907 31.3885 20.3491 31.6566 20.7541C31.7641 21.0461 31.8519 21.3444 31.9198 21.6472C31.9879 22.0441 31.9689 22.4504 31.8636 22.8397C31.3842 23.6532 30.7374 24.3636 29.963 24.9271C29.4993 25.4807 28.9389 25.9519 28.3071 26.3193C27.7128 26.5563 27.0949 26.7339 26.463 26.8493C25.3229 27.059 24.1497 27.0362 23.0193 26.7822L22.4361 26.715C21.7977 26.5775 21.1692 26.4005 20.5544 26.185C19.6623 25.8303 18.7893 25.4322 17.9388 24.9925C17.4684 24.742 16.9979 24.3844 16.5275 24.1321C12.3893 21.8123 8.97641 18.4588 6.64846 14.4248C6.40384 14.0073 6.08383 13.579 5.82039 13.1669C5.50052 12.6014 5.22392 12.0142 4.99254 11.4099C4.38643 10.1489 4.05055 8.78278 4.00528 7.39353C3.96001 6.00428 4.20626 4.62053 4.72907 3.32531C5.09257 2.79396 5.54382 2.32365 6.06502 1.93311L7.53282 0.481007C7.71504 0.351428 7.91061 0.240131 8.11626 0.148842C8.29739 0.119584 8.47409 0.0696177 8.64297 0ZM8.84993 1.4521C8.71821 1.54104 8.54891 1.56645 8.43601 1.65176L6.85542 3.20914C6.5281 3.44563 6.24751 3.73708 6.02735 4.06951C4.69133 6.97372 6.0651 10.7401 7.32585 12.7494C8.28264 14.2789 9.31896 15.7607 10.4307 17.1892C10.6001 17.4125 10.8634 17.5958 11.0328 17.8191C11.3395 18.2257 11.7003 18.5918 12.1055 18.9082C12.2372 19.0007 12.2935 19.1804 12.4064 19.2712C12.9145 19.6614 13.3473 20.1588 13.8554 20.5309C14.4575 20.9665 15.0222 21.4385 15.6431 21.8559C16.8234 22.6295 18.0484 23.3373 19.3124 23.976C21.4379 25.2361 23.9663 25.7071 26.4254 25.301C26.8022 25.2414 27.1734 25.1528 27.5355 25.036C27.9519 24.8031 28.3214 24.5 28.6268 24.1412C29.1725 23.622 29.7182 23.1029 30.2828 22.5838C30.3169 22.5016 30.3612 22.4236 30.4146 22.3515C30.4153 21.9381 30.3001 21.5322 30.0815 21.1766C29.8629 20.821 29.549 20.5289 29.1726 20.3312C28.9656 20.1225 28.7775 19.8793 28.5517 19.6687C27.8743 19.0171 27.1779 18.3981 26.5005 17.7465C26.1144 17.2198 25.6053 16.7882 25.0141 16.4868C24.7622 16.4813 24.5133 16.5396 24.2921 16.6559C24.0709 16.7721 23.885 16.9422 23.7532 17.1493C23.057 17.8009 22.3796 18.4526 21.6834 19.1042C21.461 19.4139 21.1723 19.6739 20.8367 19.8666C20.5859 19.7793 20.3277 19.7131 20.0651 19.6687C19.6116 19.463 19.177 19.2201 18.7666 18.9427C16.6935 17.5401 14.8537 15.8417 13.3098 13.9057C12.3432 13.0114 11.6526 11.876 11.3151 10.6257C11.7773 10.2536 12.2056 9.84367 12.5948 9.40054C13.2534 8.76525 13.9306 8.15899 14.5516 7.47832H14.6081C14.7058 7.34522 14.7744 7.19441 14.81 7.03499C14.8456 6.87558 14.8473 6.71087 14.8151 6.55079C14.7341 6.45983 14.6646 6.3599 14.6081 6.25311C14.3222 5.93492 14.0142 5.63594 13.6861 5.35825C12.764 4.49788 11.8609 3.63388 10.9388 2.77351C10.7201 2.41317 10.4174 2.10674 10.0549 1.87838C9.69249 1.65002 9.27993 1.50595 8.84993 1.45754V1.4521Z" fill="#0B7D40"/>
</g>
<defs>
<filter id="filter0_d" x="0" y="0" width="36" height="35" filterUnits="userSpaceOnUse" color-interpolation-filters="sRGB">
<feFlood flood-opacity="0" result="BackgroundImageFix"/>
<feColorMatrix in="SourceAlpha" type="matrix" values="0 0 0 0 0 0 0 0 0 0 0 0 0 0 0 0 0 0 127 0"/>
<feOffset dy="4"/>
<feGaussianBlur stdDeviation="2"/>
<feColorMatrix type="matrix" values="0 0 0 0 0 0 0 0 0 0 0 0 0 0 0 0 0 0 1 0"/>
<feBlend mode="normal" in2="BackgroundImageFix" result="effect1_dropShadow"/>
<feBlend mode="normal" in="SourceGraphic" in2="effect1_dropShadow" result="shape"/>
</filter>
</defs>
</svg>
